# MagicaVoxel @ Ephtracy

# group
o 

# material
mtllib cock.mtl
usemtl palette

# normals
vn -1 0 0
vn 1 0 0
vn 0 0 1
vn 0 0 -1
vn 0 -1 0
vn 0 1 0

# texcoords
vt 0.138672 0.5
vt 0.419922 0.5
vt 0.845703 0.5
vt 0.958984 0.5
vt 0.994141 0.5

# verts
v 0.7 5 -2.3
v 0.7 5 -2.6
v 0.7 5.2 -2.3
v 0.7 5.2 -2.6
v 0.9 4.8 -2.3
v 0.9 4.8 -2.6
v 0.9 5 -2.3
v 0.9 5 -2.6
v 1.1 3.2 -1.8
v 1.1 3.2 -3.1
v 1.1 4.8 -2.3
v 1.1 4.8 -2.6
v 1.1 5 -2.3
v 1.1 5 -2.6
v 1.1 5.2 -2.3
v 1.1 5.2 -2.6
v 1.1 5.8 -1.8
v 1.1 5.8 -3.1
v 1.3 5.8 -2.3
v 1.3 5.8 -2.6
v 1.3 6 -2.3
v 1.3 6 -2.6
v 1.6 2 -1.6
v 1.6 2 -1.8
v 1.6 2 -2
v 1.6 2 -2.2
v 1.6 2 -2.7
v 1.6 2 -2.9
v 1.6 2 -3.1
v 1.6 2 -3.3
v 1.6 2.1 -1.6
v 1.6 2.1 -1.8
v 1.6 2.1 -2
v 1.6 2.1 -2.2
v 1.6 2.1 -2.7
v 1.6 2.1 -2.9
v 1.6 2.1 -3.1
v 1.6 2.1 -3.3
v 2 2 -1.8
v 2 2 -2
v 2 2 -2.9
v 2 2 -3.1
v 2 2.1 -1.8
v 2 2.1 -2
v 2 2.1 -2.9
v 2 2.1 -3.1
v 2.1 2.1 -1.8
v 2.1 2.1 -2
v 2.1 2.1 -2.9
v 2.1 2.1 -3.1
v 2.1 3.2 -1.8
v 2.1 3.2 -2
v 2.1 3.2 -2.9
v 2.1 3.2 -3.1
v 1.8 5.8 -2.3
v 1.8 5.8 -2.6
v 1.8 6 -2.3
v 1.8 6 -2.6
v 2.2 4.3 -1.8
v 2.2 4.3 -3.1
v 2.2 5.8 -1.8
v 2.2 5.8 -3.1
v 2.3 2.1 -1.8
v 2.3 2.1 -2
v 2.3 2.1 -2.9
v 2.3 2.1 -3.1
v 2.3 3.2 -1.8
v 2.3 3.2 -2
v 2.3 3.2 -2.9
v 2.3 3.2 -3.1
v 2.4 2 -1.6
v 2.4 2 -2.2
v 2.4 2 -2.7
v 2.4 2 -3.3
v 2.4 2.1 -1.6
v 2.4 2.1 -2.2
v 2.4 2.1 -2.7
v 2.4 2.1 -3.3
v 3.1 3.2 -1.8
v 3.1 3.2 -2.3
v 3.1 3.2 -2.6
v 3.1 3.2 -3.1
v 3.1 3.5 -2.3
v 3.1 3.5 -2.6
v 3.1 4.3 -1.8
v 3.1 4.3 -3.1
v 3.2 3.2 -2.3
v 3.2 3.2 -2.6
v 3.2 3.3 -2.4
v 3.2 3.3 -2.5
v 3.2 3.4 -2.4
v 3.2 3.4 -2.5
v 3.2 3.5 -2.3
v 3.2 3.5 -2.6
v 3.3 3.3 -2.4
v 3.3 3.3 -2.5
v 3.3 3.4 -2.4
v 3.3 3.4 -2.5
v 1.6 2 -1.6
v 1.6 2.1 -1.6
v 2.4 2 -1.6
v 2.4 2.1 -1.6
v 1.1 3.2 -1.8
v 1.1 5.8 -1.8
v 1.4 5.3 -1.8
v 1.4 5.5 -1.8
v 1.6 5.3 -1.8
v 1.6 5.5 -1.8
v 2.1 2.1 -1.8
v 2.1 3.2 -1.8
v 2.2 4.3 -1.8
v 2.2 5.8 -1.8
v 2.3 2.1 -1.8
v 2.3 3.2 -1.8
v 3.1 3.2 -1.8
v 3.1 4.3 -1.8
v 1.6 2 -2
v 1.6 2.1 -2
v 2 2 -2
v 2 2.1 -2
v 0.7 5 -2.3
v 0.7 5.2 -2.3
v 0.9 4.8 -2.3
v 0.9 5 -2.3
v 1.1 4.8 -2.3
v 1.1 5 -2.3
v 1.1 5.2 -2.3
v 1.3 5.8 -2.3
v 1.3 6 -2.3
v 1.8 5.8 -2.3
v 1.8 6 -2.3
v 3.1 3.2 -2.3
v 3.1 3.5 -2.3
v 3.2 3.2 -2.3
v 3.2 3.5 -2.3
v 3.2 3.3 -2.4
v 3.2 3.4 -2.4
v 3.3 3.3 -2.4
v 3.3 3.4 -2.4
v 1.6 2 -2.7
v 1.6 2.1 -2.7
v 2.4 2 -2.7
v 2.4 2.1 -2.7
v 2.1 2.1 -2.9
v 2.1 3.2 -2.9
v 2.3 2.1 -2.9
v 2.3 3.2 -2.9
v 1.6 2 -3.1
v 1.6 2.1 -3.1
v 2 2 -3.1
v 2 2.1 -3.1
v 1.6 2 -1.8
v 1.6 2.1 -1.8
v 2 2 -1.8
v 2 2.1 -1.8
v 2.1 2.1 -2
v 2.1 3.2 -2
v 2.3 2.1 -2
v 2.3 3.2 -2
v 1.6 2 -2.2
v 1.6 2.1 -2.2
v 2.4 2 -2.2
v 2.4 2.1 -2.2
v 3.2 3.3 -2.5
v 3.2 3.4 -2.5
v 3.3 3.3 -2.5
v 3.3 3.4 -2.5
v 0.7 5 -2.6
v 0.7 5.2 -2.6
v 0.9 4.8 -2.6
v 0.9 5 -2.6
v 1.1 4.8 -2.6
v 1.1 5 -2.6
v 1.1 5.2 -2.6
v 1.3 5.8 -2.6
v 1.3 6 -2.6
v 1.8 5.8 -2.6
v 1.8 6 -2.6
v 3.1 3.2 -2.6
v 3.1 3.5 -2.6
v 3.2 3.2 -2.6
v 3.2 3.5 -2.6
v 1.6 2 -2.9
v 1.6 2.1 -2.9
v 2 2 -2.9
v 2 2.1 -2.9
v 1.1 3.2 -3.1
v 1.1 5.8 -3.1
v 1.4 5.3 -3.1
v 1.4 5.5 -3.1
v 1.6 5.3 -3.1
v 1.6 5.5 -3.1
v 2.1 2.1 -3.1
v 2.1 3.2 -3.1
v 2.2 4.3 -3.1
v 2.2 5.8 -3.1
v 2.3 2.1 -3.1
v 2.3 3.2 -3.1
v 3.1 3.2 -3.1
v 3.1 4.3 -3.1
v 1.6 2 -3.3
v 1.6 2.1 -3.3
v 2.4 2 -3.3
v 2.4 2.1 -3.3
v 1.6 2 -1.6
v 2.4 2 -1.6
v 1.6 2 -1.8
v 2 2 -1.8
v 1.6 2 -2
v 2 2 -2
v 1.6 2 -2.2
v 2.4 2 -2.2
v 1.6 2 -2.7
v 2.4 2 -2.7
v 1.6 2 -2.9
v 2 2 -2.9
v 1.6 2 -3.1
v 2 2 -3.1
v 1.6 2 -3.3
v 2.4 2 -3.3
v 1.1 3.2 -1.8
v 2.1 3.2 -1.8
v 2.3 3.2 -1.8
v 3.1 3.2 -1.8
v 2.1 3.2 -2
v 2.3 3.2 -2
v 3.1 3.2 -2.3
v 3.2 3.2 -2.3
v 3.1 3.2 -2.6
v 3.2 3.2 -2.6
v 2.1 3.2 -2.9
v 2.3 3.2 -2.9
v 1.1 3.2 -3.1
v 2.1 3.2 -3.1
v 2.3 3.2 -3.1
v 3.1 3.2 -3.1
v 3.2 3.3 -2.4
v 3.3 3.3 -2.4
v 3.2 3.3 -2.5
v 3.3 3.3 -2.5
v 0.9 4.8 -2.3
v 1.1 4.8 -2.3
v 0.9 4.8 -2.6
v 1.1 4.8 -2.6
v 0.7 5 -2.3
v 0.9 5 -2.3
v 0.7 5 -2.6
v 0.9 5 -2.6
v 1.6 2.1 -1.6
v 2.4 2.1 -1.6
v 1.6 2.1 -1.8
v 2 2.1 -1.8
v 2.1 2.1 -1.8
v 2.3 2.1 -1.8
v 1.6 2.1 -2
v 2 2.1 -2
v 2.1 2.1 -2
v 2.3 2.1 -2
v 1.6 2.1 -2.2
v 2.4 2.1 -2.2
v 1.6 2.1 -2.7
v 2.4 2.1 -2.7
v 1.6 2.1 -2.9
v 2 2.1 -2.9
v 2.1 2.1 -2.9
v 2.3 2.1 -2.9
v 1.6 2.1 -3.1
v 2 2.1 -3.1
v 2.1 2.1 -3.1
v 2.3 2.1 -3.1
v 1.6 2.1 -3.3
v 2.4 2.1 -3.3
v 3.2 3.4 -2.4
v 3.3 3.4 -2.4
v 3.2 3.4 -2.5
v 3.3 3.4 -2.5
v 3.1 3.5 -2.3
v 3.2 3.5 -2.3
v 3.1 3.5 -2.6
v 3.2 3.5 -2.6
v 2.2 4.3 -1.8
v 3.1 4.3 -1.8
v 2.2 4.3 -3.1
v 3.1 4.3 -3.1
v 0.7 5.2 -2.3
v 1.1 5.2 -2.3
v 0.7 5.2 -2.6
v 1.1 5.2 -2.6
v 1.1 5.8 -1.8
v 2.2 5.8 -1.8
v 1.3 5.8 -2.3
v 1.8 5.8 -2.3
v 1.3 5.8 -2.6
v 1.8 5.8 -2.6
v 1.1 5.8 -3.1
v 2.2 5.8 -3.1
v 1.3 6 -2.3
v 1.8 6 -2.3
v 1.3 6 -2.6
v 1.8 6 -2.6

# faces
f 3/1/1 2/1/1 1/1/1
f 4/1/1 2/1/1 3/1/1
f 7/2/1 6/2/1 5/2/1
f 8/2/1 6/2/1 7/2/1
f 11/4/1 10/4/1 9/4/1
f 12/4/1 10/4/1 11/4/1
f 13/4/1 11/4/1 9/4/1
f 14/4/1 10/4/1 12/4/1
f 15/4/1 13/4/1 9/4/1
f 16/4/1 10/4/1 14/4/1
f 17/4/1 15/4/1 9/4/1
f 17/4/1 16/4/1 15/4/1
f 18/4/1 10/4/1 16/4/1
f 18/4/1 16/4/1 17/4/1
f 21/1/1 20/1/1 19/1/1
f 22/1/1 20/1/1 21/1/1
f 31/3/1 24/3/1 23/3/1
f 32/3/1 24/3/1 31/3/1
f 33/3/1 26/3/1 25/3/1
f 34/3/1 26/3/1 33/3/1
f 35/3/1 28/3/1 27/3/1
f 36/3/1 28/3/1 35/3/1
f 37/3/1 30/3/1 29/3/1
f 38/3/1 30/3/1 37/3/1
f 43/3/1 40/3/1 39/3/1
f 44/3/1 40/3/1 43/3/1
f 45/3/1 42/3/1 41/3/1
f 46/3/1 42/3/1 45/3/1
f 51/3/1 48/3/1 47/3/1
f 52/3/1 48/3/1 51/3/1
f 53/3/1 50/3/1 49/3/1
f 54/3/1 50/3/1 53/3/1
f 55/1/2 56/1/2 57/1/2
f 57/1/2 56/1/2 58/1/2
f 59/4/2 60/4/2 61/4/2
f 61/4/2 60/4/2 62/4/2
f 63/3/2 64/3/2 67/3/2
f 67/3/2 64/3/2 68/3/2
f 65/3/2 66/3/2 69/3/2
f 69/3/2 66/3/2 70/3/2
f 71/3/2 72/3/2 75/3/2
f 75/3/2 72/3/2 76/3/2
f 73/3/2 74/3/2 77/3/2
f 77/3/2 74/3/2 78/3/2
f 79/4/2 80/4/2 83/4/2
f 81/4/2 82/4/2 84/4/2
f 79/4/2 83/4/2 85/4/2
f 83/4/2 84/4/2 85/4/2
f 84/4/2 82/4/2 86/4/2
f 85/4/2 84/4/2 86/4/2
f 87/4/2 88/4/2 89/4/2
f 89/4/2 88/4/2 90/4/2
f 87/4/2 89/4/2 91/4/2
f 90/4/2 88/4/2 92/4/2
f 87/4/2 91/4/2 93/4/2
f 91/4/2 92/4/2 93/4/2
f 92/4/2 88/4/2 94/4/2
f 93/4/2 92/4/2 94/4/2
f 95/4/2 96/4/2 97/4/2
f 97/4/2 96/4/2 98/4/2
f 101/3/3 100/3/3 99/3/3
f 102/3/3 100/3/3 101/3/3
f 105/4/3 104/4/3 103/4/3
f 106/4/3 104/4/3 105/4/3
f 107/4/3 105/4/3 103/4/3
f 107/5/3 106/5/3 105/5/3
f 108/4/3 104/4/3 106/4/3
f 108/5/3 106/5/3 107/5/3
f 110/4/3 107/4/3 103/4/3
f 110/4/3 108/4/3 107/4/3
f 111/4/3 108/4/3 110/4/3
f 112/4/3 104/4/3 108/4/3
f 112/4/3 108/4/3 111/4/3
f 113/3/3 110/3/3 109/3/3
f 114/4/3 111/4/3 110/4/3
f 114/3/3 110/3/3 113/3/3
f 115/4/3 111/4/3 114/4/3
f 116/4/3 111/4/3 115/4/3
f 119/3/3 118/3/3 117/3/3
f 120/3/3 118/3/3 119/3/3
f 124/1/3 122/1/3 121/1/3
f 125/2/3 124/2/3 123/2/3
f 126/1/3 122/1/3 124/1/3
f 126/2/3 124/2/3 125/2/3
f 127/1/3 122/1/3 126/1/3
f 130/1/3 129/1/3 128/1/3
f 131/1/3 129/1/3 130/1/3
f 134/4/3 133/4/3 132/4/3
f 135/4/3 133/4/3 134/4/3
f 138/4/3 137/4/3 136/4/3
f 139/4/3 137/4/3 138/4/3
f 142/3/3 141/3/3 140/3/3
f 143/3/3 141/3/3 142/3/3
f 146/3/3 145/3/3 144/3/3
f 147/3/3 145/3/3 146/3/3
f 150/3/3 149/3/3 148/3/3
f 151/3/3 149/3/3 150/3/3
f 152/3/4 153/3/4 154/3/4
f 154/3/4 153/3/4 155/3/4
f 156/3/4 157/3/4 158/3/4
f 158/3/4 157/3/4 159/3/4
f 160/3/4 161/3/4 162/3/4
f 162/3/4 161/3/4 163/3/4
f 164/4/4 165/4/4 166/4/4
f 166/4/4 165/4/4 167/4/4
f 168/1/4 169/1/4 171/1/4
f 170/2/4 171/2/4 172/2/4
f 171/1/4 169/1/4 173/1/4
f 172/2/4 171/2/4 173/2/4
f 173/1/4 169/1/4 174/1/4
f 175/1/4 176/1/4 177/1/4
f 177/1/4 176/1/4 178/1/4
f 179/4/4 180/4/4 181/4/4
f 181/4/4 180/4/4 182/4/4
f 183/3/4 184/3/4 185/3/4
f 185/3/4 184/3/4 186/3/4
f 187/4/4 188/4/4 189/4/4
f 189/4/4 188/4/4 190/4/4
f 187/4/4 189/4/4 191/4/4
f 189/5/4 190/5/4 191/5/4
f 190/4/4 188/4/4 192/4/4
f 191/5/4 190/5/4 192/5/4
f 187/4/4 191/4/4 194/4/4
f 191/4/4 192/4/4 194/4/4
f 194/4/4 192/4/4 195/4/4
f 192/4/4 188/4/4 196/4/4
f 195/4/4 192/4/4 196/4/4
f 193/3/4 194/3/4 197/3/4
f 194/4/4 195/4/4 198/4/4
f 197/3/4 194/3/4 198/3/4
f 198/4/4 195/4/4 199/4/4
f 199/4/4 195/4/4 200/4/4
f 201/3/4 202/3/4 203/3/4
f 203/3/4 202/3/4 204/3/4
f 207/3/5 206/3/5 205/3/5
f 208/3/5 206/3/5 207/3/5
f 210/3/5 206/3/5 208/3/5
f 211/3/5 210/3/5 209/3/5
f 212/3/5 206/3/5 210/3/5
f 212/3/5 210/3/5 211/3/5
f 215/3/5 214/3/5 213/3/5
f 216/3/5 214/3/5 215/3/5
f 218/3/5 214/3/5 216/3/5
f 219/3/5 218/3/5 217/3/5
f 220/3/5 214/3/5 218/3/5
f 220/3/5 218/3/5 219/3/5
f 225/4/5 222/4/5 221/4/5
f 226/4/5 224/4/5 223/4/5
f 227/4/5 224/4/5 226/4/5
f 227/4/5 226/4/5 225/4/5
f 229/4/5 227/4/5 225/4/5
f 229/4/5 228/4/5 227/4/5
f 230/4/5 228/4/5 229/4/5
f 231/4/5 225/4/5 221/4/5
f 231/4/5 229/4/5 225/4/5
f 232/4/5 229/4/5 231/4/5
f 233/4/5 231/4/5 221/4/5
f 234/4/5 231/4/5 233/4/5
f 235/4/5 229/4/5 232/4/5
f 236/4/5 229/4/5 235/4/5
f 239/4/5 238/4/5 237/4/5
f 240/4/5 238/4/5 239/4/5
f 243/2/5 242/2/5 241/2/5
f 244/2/5 242/2/5 243/2/5
f 247/1/5 246/1/5 245/1/5
f 248/1/5 246/1/5 247/1/5
f 249/3/6 250/3/6 251/3/6
f 251/3/6 250/3/6 252/3/6
f 252/3/6 250/3/6 253/3/6
f 253/3/6 250/3/6 254/3/6
f 252/3/6 253/3/6 256/3/6
f 256/3/6 253/3/6 257/3/6
f 254/3/6 250/3/6 258/3/6
f 256/3/6 257/3/6 259/3/6
f 257/3/6 258/3/6 259/3/6
f 255/3/6 256/3/6 259/3/6
f 258/3/6 250/3/6 260/3/6
f 259/3/6 258/3/6 260/3/6
f 261/3/6 262/3/6 263/3/6
f 263/3/6 262/3/6 264/3/6
f 264/3/6 262/3/6 265/3/6
f 265/3/6 262/3/6 266/3/6
f 264/3/6 265/3/6 268/3/6
f 268/3/6 265/3/6 269/3/6
f 266/3/6 262/3/6 270/3/6
f 268/3/6 269/3/6 271/3/6
f 269/3/6 270/3/6 271/3/6
f 267/3/6 268/3/6 271/3/6
f 270/3/6 262/3/6 272/3/6
f 271/3/6 270/3/6 272/3/6
f 273/4/6 274/4/6 275/4/6
f 275/4/6 274/4/6 276/4/6
f 277/4/6 278/4/6 279/4/6
f 279/4/6 278/4/6 280/4/6
f 281/4/6 282/4/6 283/4/6
f 283/4/6 282/4/6 284/4/6
f 285/1/6 286/1/6 287/1/6
f 287/1/6 286/1/6 288/1/6
f 289/4/6 290/4/6 291/4/6
f 291/4/6 290/4/6 292/4/6
f 289/4/6 291/4/6 293/4/6
f 292/4/6 290/4/6 294/4/6
f 289/4/6 293/4/6 295/4/6
f 293/4/6 294/4/6 295/4/6
f 294/4/6 290/4/6 296/4/6
f 295/4/6 294/4/6 296/4/6
f 297/1/6 298/1/6 299/1/6
f 299/1/6 298/1/6 300/1/6
