# MagicaVoxel @ Ephtracy

# group
o 

# material
mtllib tree_2.mtl
usemtl palette

# normals
vn -1 0 0
vn 1 0 0
vn 0 0 1
vn 0 0 -1
vn 0 -1 0
vn 0 1 0

# texcoords
vt 0.537109 0.5
vt 0.654297 0.5
vt 0.748047 0.5
vt 0.958984 0.5

# verts
v 1.2 2 -1.4
v 1.2 2 -3.1
v 1.2 2.1 -1.4
v 1.2 2.1 -3.1
v 1.4 2.4 -1.6
v 1.4 2.4 -2.9
v 1.4 2.5 -1.6
v 1.4 2.5 -2.9
v 1.5 2.1 -2.7
v 1.5 2.1 -2.8
v 1.5 2.2 -2.7
v 1.5 2.2 -2.8
v 1.5 2.5 -1.7
v 1.5 2.5 -2.8
v 1.5 2.6 -1.7
v 1.5 2.6 -2.8
v 1.5 3.1 -1.7
v 1.5 3.1 -2.8
v 1.5 3.2 -1.7
v 1.5 3.2 -2.8
v 1.6 2.1 -1.7
v 1.6 2.1 -1.8
v 1.6 2.2 -1.7
v 1.6 2.2 -1.8
v 1.6 2.6 -1.8
v 1.6 2.6 -2.7
v 1.6 2.7 -1.8
v 1.6 2.7 -2.7
v 1.6 3.2 -1.8
v 1.6 3.2 -2.7
v 1.6 3.3 -1.8
v 1.6 3.3 -2.7
v 1.6 3.7 -1.8
v 1.6 3.7 -2.7
v 1.6 3.8 -1.8
v 1.6 3.8 -2.7
v 1.7 2.7 -1.9
v 1.7 2.7 -2.6
v 1.7 2.8 -1.9
v 1.7 2.8 -2.6
v 1.7 3.3 -1.9
v 1.7 3.3 -2.6
v 1.7 3.4 -1.9
v 1.7 3.4 -2.6
v 1.7 3.8 -1.9
v 1.7 3.8 -2.6
v 1.7 3.9 -1.9
v 1.7 3.9 -2.6
v 1.8 2.1 -2
v 1.8 2.1 -2.5
v 1.8 2.4 -2
v 1.8 2.4 -2.5
v 1.8 2.8 -2
v 1.8 2.8 -2.5
v 1.8 3.1 -2
v 1.8 3.1 -2.5
v 1.8 3.4 -2
v 1.8 3.4 -2.5
v 1.8 3.7 -2
v 1.8 3.7 -2.5
v 1.8 3.9 -2
v 1.8 3.9 -2.1
v 1.8 3.9 -2.2
v 1.8 3.9 -2.3
v 1.8 3.9 -2.4
v 1.8 3.9 -2.5
v 1.8 4.2 -2
v 1.8 4.2 -2.1
v 1.8 4.2 -2.2
v 1.8 4.2 -2.3
v 1.8 4.2 -2.4
v 1.8 4.2 -2.5
v 1.9 3.9 -2.1
v 1.9 3.9 -2.2
v 1.9 3.9 -2.3
v 1.9 3.9 -2.4
v 1.9 4.2 -2.1
v 1.9 4.2 -2.2
v 1.9 4.2 -2.3
v 1.9 4.2 -2.4
v 1.9 4.3 -2.1
v 1.9 4.3 -2.2
v 1.9 4.3 -2.3
v 1.9 4.3 -2.4
v 2 3.9 -2
v 2 3.9 -2.1
v 2 3.9 -2.2
v 2 3.9 -2.3
v 2 3.9 -2.4
v 2 3.9 -2.5
v 2 4.2 -2
v 2 4.2 -2.1
v 2 4.2 -2.4
v 2 4.2 -2.5
v 2 4.3 -2.2
v 2 4.3 -2.3
v 2 4.5 -2.2
v 2 4.5 -2.3
v 2.1 3.9 -2.1
v 2.1 3.9 -2.2
v 2.1 3.9 -2.3
v 2.1 3.9 -2.4
v 2.1 4.2 -2.1
v 2.1 4.2 -2.4
v 2.1 4.3 -2.1
v 2.1 4.3 -2.2
v 2.1 4.3 -2.3
v 2.1 4.3 -2.4
v 2.2 3.9 -2
v 2.2 3.9 -2.1
v 2.2 3.9 -2.2
v 2.2 3.9 -2.3
v 2.2 3.9 -2.4
v 2.2 3.9 -2.5
v 2.2 4.2 -2
v 2.2 4.2 -2.1
v 2.2 4.2 -2.2
v 2.2 4.2 -2.3
v 2.2 4.2 -2.4
v 2.2 4.2 -2.5
v 2.4 2.1 -2.6
v 2.4 2.1 -2.7
v 2.4 2.2 -2.6
v 2.4 2.2 -2.7
v 2.5 2.1 -2.1
v 2.5 2.1 -2.2
v 2.5 2.2 -2.1
v 2.5 2.2 -2.2
v 1.6 2.1 -2.7
v 1.6 2.1 -2.8
v 1.6 2.2 -2.7
v 1.6 2.2 -2.8
v 1.7 2.1 -1.7
v 1.7 2.1 -1.8
v 1.7 2.2 -1.7
v 1.7 2.2 -1.8
v 1.9 3.9 -2
v 1.9 3.9 -2.1
v 1.9 3.9 -2.2
v 1.9 3.9 -2.3
v 1.9 3.9 -2.4
v 1.9 3.9 -2.5
v 1.9 4.2 -2
v 1.9 4.2 -2.1
v 1.9 4.2 -2.2
v 1.9 4.2 -2.3
v 1.9 4.2 -2.4
v 1.9 4.2 -2.5
v 2 3.9 -2.1
v 2 3.9 -2.2
v 2 3.9 -2.3
v 2 3.9 -2.4
v 2 4.2 -2.1
v 2 4.2 -2.4
v 2 4.3 -2.1
v 2 4.3 -2.2
v 2 4.3 -2.3
v 2 4.3 -2.4
v 2.1 3.9 -2
v 2.1 3.9 -2.1
v 2.1 3.9 -2.2
v 2.1 3.9 -2.3
v 2.1 3.9 -2.4
v 2.1 3.9 -2.5
v 2.1 4.2 -2
v 2.1 4.2 -2.1
v 2.1 4.2 -2.4
v 2.1 4.2 -2.5
v 2.1 4.3 -2.2
v 2.1 4.3 -2.3
v 2.1 4.5 -2.2
v 2.1 4.5 -2.3
v 2.2 3.9 -2.1
v 2.2 3.9 -2.2
v 2.2 3.9 -2.3
v 2.2 3.9 -2.4
v 2.2 4.2 -2.1
v 2.2 4.2 -2.2
v 2.2 4.2 -2.3
v 2.2 4.2 -2.4
v 2.2 4.3 -2.1
v 2.2 4.3 -2.2
v 2.2 4.3 -2.3
v 2.2 4.3 -2.4
v 2.3 2.1 -2
v 2.3 2.1 -2.5
v 2.3 2.4 -2
v 2.3 2.4 -2.5
v 2.3 2.8 -2
v 2.3 2.8 -2.5
v 2.3 3.1 -2
v 2.3 3.1 -2.5
v 2.3 3.4 -2
v 2.3 3.4 -2.5
v 2.3 3.7 -2
v 2.3 3.7 -2.5
v 2.3 3.9 -2
v 2.3 3.9 -2.1
v 2.3 3.9 -2.2
v 2.3 3.9 -2.3
v 2.3 3.9 -2.4
v 2.3 3.9 -2.5
v 2.3 4.2 -2
v 2.3 4.2 -2.1
v 2.3 4.2 -2.2
v 2.3 4.2 -2.3
v 2.3 4.2 -2.4
v 2.3 4.2 -2.5
v 2.4 2.7 -1.9
v 2.4 2.7 -2.6
v 2.4 2.8 -1.9
v 2.4 2.8 -2.6
v 2.4 3.3 -1.9
v 2.4 3.3 -2.6
v 2.4 3.4 -1.9
v 2.4 3.4 -2.6
v 2.4 3.8 -1.9
v 2.4 3.8 -2.6
v 2.4 3.9 -1.9
v 2.4 3.9 -2.6
v 2.5 2.1 -2.6
v 2.5 2.1 -2.7
v 2.5 2.2 -2.6
v 2.5 2.2 -2.7
v 2.5 2.6 -1.8
v 2.5 2.6 -2.7
v 2.5 2.7 -1.8
v 2.5 2.7 -2.7
v 2.5 3.2 -1.8
v 2.5 3.2 -2.7
v 2.5 3.3 -1.8
v 2.5 3.3 -2.7
v 2.5 3.7 -1.8
v 2.5 3.7 -2.7
v 2.5 3.8 -1.8
v 2.5 3.8 -2.7
v 2.6 2.1 -2.1
v 2.6 2.1 -2.2
v 2.6 2.2 -2.1
v 2.6 2.2 -2.2
v 2.6 2.5 -1.7
v 2.6 2.5 -2.8
v 2.6 2.6 -1.7
v 2.6 2.6 -2.8
v 2.6 3.1 -1.7
v 2.6 3.1 -2.8
v 2.6 3.2 -1.7
v 2.6 3.2 -2.8
v 2.7 2.4 -1.6
v 2.7 2.4 -2.9
v 2.7 2.5 -1.6
v 2.7 2.5 -2.9
v 2.9 2 -1.4
v 2.9 2 -3.1
v 2.9 2.1 -1.4
v 2.9 2.1 -3.1
v 1.2 2 -1.4
v 1.2 2.1 -1.4
v 2.9 2 -1.4
v 2.9 2.1 -1.4
v 1.4 2.4 -1.6
v 1.4 2.5 -1.6
v 2.7 2.4 -1.6
v 2.7 2.5 -1.6
v 1.5 2.5 -1.7
v 1.5 2.6 -1.7
v 1.5 3.1 -1.7
v 1.5 3.2 -1.7
v 1.6 2.1 -1.7
v 1.6 2.2 -1.7
v 1.7 2.1 -1.7
v 1.7 2.2 -1.7
v 2.6 2.5 -1.7
v 2.6 2.6 -1.7
v 2.6 3.1 -1.7
v 2.6 3.2 -1.7
v 1.6 2.6 -1.8
v 1.6 2.7 -1.8
v 1.6 3.2 -1.8
v 1.6 3.3 -1.8
v 1.6 3.7 -1.8
v 1.6 3.8 -1.8
v 2.5 2.6 -1.8
v 2.5 2.7 -1.8
v 2.5 3.2 -1.8
v 2.5 3.3 -1.8
v 2.5 3.7 -1.8
v 2.5 3.8 -1.8
v 1.7 2.7 -1.9
v 1.7 2.8 -1.9
v 1.7 3.3 -1.9
v 1.7 3.4 -1.9
v 1.7 3.8 -1.9
v 1.7 3.9 -1.9
v 2.4 2.7 -1.9
v 2.4 2.8 -1.9
v 2.4 3.3 -1.9
v 2.4 3.4 -1.9
v 2.4 3.8 -1.9
v 2.4 3.9 -1.9
v 1.8 2.1 -2
v 1.8 2.4 -2
v 1.8 2.8 -2
v 1.8 3.1 -2
v 1.8 3.4 -2
v 1.8 3.7 -2
v 1.8 3.9 -2
v 1.8 4.2 -2
v 1.9 3.9 -2
v 1.9 4.2 -2
v 2 3.9 -2
v 2 4.2 -2
v 2.1 3.9 -2
v 2.1 4.2 -2
v 2.2 3.9 -2
v 2.2 4.2 -2
v 2.3 2.1 -2
v 2.3 2.4 -2
v 2.3 2.8 -2
v 2.3 3.1 -2
v 2.3 3.4 -2
v 2.3 3.7 -2
v 2.3 3.9 -2
v 2.3 4.2 -2
v 1.9 3.9 -2.1
v 1.9 4.2 -2.1
v 1.9 4.3 -2.1
v 2 3.9 -2.1
v 2 4.2 -2.1
v 2 4.3 -2.1
v 2.1 3.9 -2.1
v 2.1 4.2 -2.1
v 2.1 4.3 -2.1
v 2.2 3.9 -2.1
v 2.2 4.2 -2.1
v 2.2 4.3 -2.1
v 2.5 2.1 -2.1
v 2.5 2.2 -2.1
v 2.6 2.1 -2.1
v 2.6 2.2 -2.1
v 1.8 3.9 -2.2
v 1.8 4.2 -2.2
v 1.9 3.9 -2.2
v 1.9 4.2 -2.2
v 2 3.9 -2.2
v 2 4.3 -2.2
v 2 4.5 -2.2
v 2.1 3.9 -2.2
v 2.1 4.3 -2.2
v 2.1 4.5 -2.2
v 2.2 3.9 -2.2
v 2.2 4.2 -2.2
v 2.3 3.9 -2.2
v 2.3 4.2 -2.2
v 1.9 3.9 -2.3
v 1.9 4.2 -2.3
v 1.9 4.3 -2.3
v 2 3.9 -2.3
v 2 4.3 -2.3
v 2.1 3.9 -2.3
v 2.1 4.3 -2.3
v 2.2 3.9 -2.3
v 2.2 4.2 -2.3
v 2.2 4.3 -2.3
v 1.8 3.9 -2.4
v 1.8 4.2 -2.4
v 1.9 3.9 -2.4
v 1.9 4.2 -2.4
v 2 3.9 -2.4
v 2 4.2 -2.4
v 2.1 3.9 -2.4
v 2.1 4.2 -2.4
v 2.2 3.9 -2.4
v 2.2 4.2 -2.4
v 2.3 3.9 -2.4
v 2.3 4.2 -2.4
v 2.4 2.1 -2.6
v 2.4 2.2 -2.6
v 2.5 2.1 -2.6
v 2.5 2.2 -2.6
v 1.5 2.1 -2.7
v 1.5 2.2 -2.7
v 1.6 2.1 -2.7
v 1.6 2.2 -2.7
v 1.6 2.1 -1.8
v 1.6 2.2 -1.8
v 1.7 2.1 -1.8
v 1.7 2.2 -1.8
v 1.8 3.9 -2.1
v 1.8 4.2 -2.1
v 1.9 3.9 -2.1
v 1.9 4.2 -2.1
v 2 3.9 -2.1
v 2 4.2 -2.1
v 2.1 3.9 -2.1
v 2.1 4.2 -2.1
v 2.2 3.9 -2.1
v 2.2 4.2 -2.1
v 2.3 3.9 -2.1
v 2.3 4.2 -2.1
v 1.9 3.9 -2.2
v 1.9 4.2 -2.2
v 1.9 4.3 -2.2
v 2 3.9 -2.2
v 2 4.3 -2.2
v 2.1 3.9 -2.2
v 2.1 4.3 -2.2
v 2.2 3.9 -2.2
v 2.2 4.2 -2.2
v 2.2 4.3 -2.2
v 2.5 2.1 -2.2
v 2.5 2.2 -2.2
v 2.6 2.1 -2.2
v 2.6 2.2 -2.2
v 1.8 3.9 -2.3
v 1.8 4.2 -2.3
v 1.9 3.9 -2.3
v 1.9 4.2 -2.3
v 2 3.9 -2.3
v 2 4.3 -2.3
v 2 4.5 -2.3
v 2.1 3.9 -2.3
v 2.1 4.3 -2.3
v 2.1 4.5 -2.3
v 2.2 3.9 -2.3
v 2.2 4.2 -2.3
v 2.3 3.9 -2.3
v 2.3 4.2 -2.3
v 1.9 3.9 -2.4
v 1.9 4.2 -2.4
v 1.9 4.3 -2.4
v 2 3.9 -2.4
v 2 4.2 -2.4
v 2 4.3 -2.4
v 2.1 3.9 -2.4
v 2.1 4.2 -2.4
v 2.1 4.3 -2.4
v 2.2 3.9 -2.4
v 2.2 4.2 -2.4
v 2.2 4.3 -2.4
v 1.8 2.1 -2.5
v 1.8 2.4 -2.5
v 1.8 2.8 -2.5
v 1.8 3.1 -2.5
v 1.8 3.4 -2.5
v 1.8 3.7 -2.5
v 1.8 3.9 -2.5
v 1.8 4.2 -2.5
v 1.9 3.9 -2.5
v 1.9 4.2 -2.5
v 2 3.9 -2.5
v 2 4.2 -2.5
v 2.1 3.9 -2.5
v 2.1 4.2 -2.5
v 2.2 3.9 -2.5
v 2.2 4.2 -2.5
v 2.3 2.1 -2.5
v 2.3 2.4 -2.5
v 2.3 2.8 -2.5
v 2.3 3.1 -2.5
v 2.3 3.4 -2.5
v 2.3 3.7 -2.5
v 2.3 3.9 -2.5
v 2.3 4.2 -2.5
v 1.7 2.7 -2.6
v 1.7 2.8 -2.6
v 1.7 3.3 -2.6
v 1.7 3.4 -2.6
v 1.7 3.8 -2.6
v 1.7 3.9 -2.6
v 2.4 2.7 -2.6
v 2.4 2.8 -2.6
v 2.4 3.3 -2.6
v 2.4 3.4 -2.6
v 2.4 3.8 -2.6
v 2.4 3.9 -2.6
v 1.6 2.6 -2.7
v 1.6 2.7 -2.7
v 1.6 3.2 -2.7
v 1.6 3.3 -2.7
v 1.6 3.7 -2.7
v 1.6 3.8 -2.7
v 2.4 2.1 -2.7
v 2.4 2.2 -2.7
v 2.5 2.1 -2.7
v 2.5 2.2 -2.7
v 2.5 2.6 -2.7
v 2.5 2.7 -2.7
v 2.5 3.2 -2.7
v 2.5 3.3 -2.7
v 2.5 3.7 -2.7
v 2.5 3.8 -2.7
v 1.5 2.1 -2.8
v 1.5 2.2 -2.8
v 1.5 2.5 -2.8
v 1.5 2.6 -2.8
v 1.5 3.1 -2.8
v 1.5 3.2 -2.8
v 1.6 2.1 -2.8
v 1.6 2.2 -2.8
v 2.6 2.5 -2.8
v 2.6 2.6 -2.8
v 2.6 3.1 -2.8
v 2.6 3.2 -2.8
v 1.4 2.4 -2.9
v 1.4 2.5 -2.9
v 2.7 2.4 -2.9
v 2.7 2.5 -2.9
v 1.2 2 -3.1
v 1.2 2.1 -3.1
v 2.9 2 -3.1
v 2.9 2.1 -3.1
v 1.2 2 -1.4
v 2.9 2 -1.4
v 1.4 2 -1.6
v 2.7 2 -1.6
v 1.4 2 -2.9
v 2.7 2 -2.9
v 1.2 2 -3.1
v 2.9 2 -3.1
v 1.4 2.4 -1.6
v 2.7 2.4 -1.6
v 1.8 2.4 -2
v 2.3 2.4 -2
v 1.8 2.4 -2.5
v 2.3 2.4 -2.5
v 1.4 2.4 -2.9
v 2.7 2.4 -2.9
v 1.5 3.1 -1.7
v 2.6 3.1 -1.7
v 1.8 3.1 -2
v 2.3 3.1 -2
v 1.8 3.1 -2.5
v 2.3 3.1 -2.5
v 1.5 3.1 -2.8
v 2.6 3.1 -2.8
v 1.6 3.7 -1.8
v 2.5 3.7 -1.8
v 1.8 3.7 -2
v 2.3 3.7 -2
v 1.8 3.7 -2.5
v 2.3 3.7 -2.5
v 1.6 3.7 -2.7
v 2.5 3.7 -2.7
v 1.2 2.1 -1.4
v 2.9 2.1 -1.4
v 1.4 2.1 -1.6
v 2.7 2.1 -1.6
v 1.6 2.1 -1.7
v 1.7 2.1 -1.7
v 1.6 2.1 -1.8
v 1.7 2.1 -1.8
v 1.8 2.1 -2
v 2.3 2.1 -2
v 2.5 2.1 -2.1
v 2.6 2.1 -2.1
v 2.5 2.1 -2.2
v 2.6 2.1 -2.2
v 1.8 2.1 -2.5
v 2.3 2.1 -2.5
v 2.4 2.1 -2.6
v 2.5 2.1 -2.6
v 1.5 2.1 -2.7
v 1.6 2.1 -2.7
v 2.4 2.1 -2.7
v 2.5 2.1 -2.7
v 1.5 2.1 -2.8
v 1.6 2.1 -2.8
v 1.4 2.1 -2.9
v 2.7 2.1 -2.9
v 1.2 2.1 -3.1
v 2.9 2.1 -3.1
v 1.6 2.2 -1.7
v 1.7 2.2 -1.7
v 1.6 2.2 -1.8
v 1.7 2.2 -1.8
v 2.5 2.2 -2.1
v 2.6 2.2 -2.1
v 2.5 2.2 -2.2
v 2.6 2.2 -2.2
v 2.4 2.2 -2.6
v 2.5 2.2 -2.6
v 1.5 2.2 -2.7
v 1.6 2.2 -2.7
v 2.4 2.2 -2.7
v 2.5 2.2 -2.7
v 1.5 2.2 -2.8
v 1.6 2.2 -2.8
v 1.4 2.5 -1.6
v 2.7 2.5 -1.6
v 1.5 2.5 -1.7
v 2.6 2.5 -1.7
v 1.5 2.5 -2.8
v 2.6 2.5 -2.8
v 1.4 2.5 -2.9
v 2.7 2.5 -2.9
v 1.5 2.6 -1.7
v 2.6 2.6 -1.7
v 1.6 2.6 -1.8
v 2.5 2.6 -1.8
v 1.6 2.6 -2.7
v 2.5 2.6 -2.7
v 1.5 2.6 -2.8
v 2.6 2.6 -2.8
v 1.6 2.7 -1.8
v 2.5 2.7 -1.8
v 1.7 2.7 -1.9
v 2.4 2.7 -1.9
v 1.7 2.7 -2.6
v 2.4 2.7 -2.6
v 1.6 2.7 -2.7
v 2.5 2.7 -2.7
v 1.7 2.8 -1.9
v 2.4 2.8 -1.9
v 1.8 2.8 -2
v 2.3 2.8 -2
v 1.8 2.8 -2.5
v 2.3 2.8 -2.5
v 1.7 2.8 -2.6
v 2.4 2.8 -2.6
v 1.5 3.2 -1.7
v 2.6 3.2 -1.7
v 1.6 3.2 -1.8
v 2.5 3.2 -1.8
v 1.6 3.2 -2.7
v 2.5 3.2 -2.7
v 1.5 3.2 -2.8
v 2.6 3.2 -2.8
v 1.6 3.3 -1.8
v 2.5 3.3 -1.8
v 1.7 3.3 -1.9
v 2.4 3.3 -1.9
v 1.7 3.3 -2.6
v 2.4 3.3 -2.6
v 1.6 3.3 -2.7
v 2.5 3.3 -2.7
v 1.7 3.4 -1.9
v 2.4 3.4 -1.9
v 1.8 3.4 -2
v 2.3 3.4 -2
v 1.8 3.4 -2.5
v 2.3 3.4 -2.5
v 1.7 3.4 -2.6
v 2.4 3.4 -2.6
v 1.6 3.8 -1.8
v 2.5 3.8 -1.8
v 1.7 3.8 -1.9
v 2.4 3.8 -1.9
v 1.7 3.8 -2.6
v 2.4 3.8 -2.6
v 1.6 3.8 -2.7
v 2.5 3.8 -2.7
v 1.7 3.9 -1.9
v 2.4 3.9 -1.9
v 1.8 3.9 -2
v 1.9 3.9 -2
v 2 3.9 -2
v 2.1 3.9 -2
v 2.2 3.9 -2
v 2.3 3.9 -2
v 1.8 3.9 -2.1
v 1.9 3.9 -2.1
v 2 3.9 -2.1
v 2.1 3.9 -2.1
v 2.2 3.9 -2.1
v 2.3 3.9 -2.1
v 1.8 3.9 -2.2
v 1.9 3.9 -2.2
v 2 3.9 -2.2
v 2.1 3.9 -2.2
v 2.2 3.9 -2.2
v 2.3 3.9 -2.2
v 1.8 3.9 -2.3
v 1.9 3.9 -2.3
v 2 3.9 -2.3
v 2.1 3.9 -2.3
v 2.2 3.9 -2.3
v 2.3 3.9 -2.3
v 1.8 3.9 -2.4
v 1.9 3.9 -2.4
v 2 3.9 -2.4
v 2.1 3.9 -2.4
v 2.2 3.9 -2.4
v 2.3 3.9 -2.4
v 1.8 3.9 -2.5
v 1.9 3.9 -2.5
v 2 3.9 -2.5
v 2.1 3.9 -2.5
v 2.2 3.9 -2.5
v 2.3 3.9 -2.5
v 1.7 3.9 -2.6
v 2.4 3.9 -2.6
v 1.8 4.2 -2
v 1.9 4.2 -2
v 2 4.2 -2
v 2.1 4.2 -2
v 2.2 4.2 -2
v 2.3 4.2 -2
v 1.8 4.2 -2.1
v 1.9 4.2 -2.1
v 2 4.2 -2.1
v 2.1 4.2 -2.1
v 2.2 4.2 -2.1
v 2.3 4.2 -2.1
v 1.8 4.2 -2.2
v 1.9 4.2 -2.2
v 2.2 4.2 -2.2
v 2.3 4.2 -2.2
v 1.8 4.2 -2.3
v 1.9 4.2 -2.3
v 2.2 4.2 -2.3
v 2.3 4.2 -2.3
v 1.8 4.2 -2.4
v 1.9 4.2 -2.4
v 2 4.2 -2.4
v 2.1 4.2 -2.4
v 2.2 4.2 -2.4
v 2.3 4.2 -2.4
v 1.8 4.2 -2.5
v 1.9 4.2 -2.5
v 2 4.2 -2.5
v 2.1 4.2 -2.5
v 2.2 4.2 -2.5
v 2.3 4.2 -2.5
v 1.9 4.3 -2.1
v 2 4.3 -2.1
v 2.1 4.3 -2.1
v 2.2 4.3 -2.1
v 1.9 4.3 -2.2
v 2 4.3 -2.2
v 2.1 4.3 -2.2
v 2.2 4.3 -2.2
v 1.9 4.3 -2.3
v 2 4.3 -2.3
v 2.1 4.3 -2.3
v 2.2 4.3 -2.3
v 1.9 4.3 -2.4
v 2 4.3 -2.4
v 2.1 4.3 -2.4
v 2.2 4.3 -2.4
v 2 4.5 -2.2
v 2.1 4.5 -2.2
v 2 4.5 -2.3
v 2.1 4.5 -2.3

# faces
f 3/4/1 2/4/1 1/4/1
f 4/4/1 2/4/1 3/4/1
f 7/2/1 6/2/1 5/2/1
f 8/2/1 6/2/1 7/2/1
f 11/2/1 10/2/1 9/2/1
f 12/2/1 10/2/1 11/2/1
f 15/2/1 14/2/1 13/2/1
f 16/2/1 14/2/1 15/2/1
f 19/2/1 18/2/1 17/2/1
f 20/2/1 18/2/1 19/2/1
f 23/2/1 22/2/1 21/2/1
f 24/2/1 22/2/1 23/2/1
f 27/2/1 26/2/1 25/2/1
f 28/2/1 26/2/1 27/2/1
f 31/2/1 30/2/1 29/2/1
f 32/2/1 30/2/1 31/2/1
f 35/2/1 34/2/1 33/2/1
f 36/2/1 34/2/1 35/2/1
f 39/2/1 38/2/1 37/2/1
f 40/2/1 38/2/1 39/2/1
f 43/2/1 42/2/1 41/2/1
f 44/2/1 42/2/1 43/2/1
f 47/2/1 46/2/1 45/2/1
f 48/2/1 46/2/1 47/2/1
f 51/1/1 50/1/1 49/1/1
f 52/1/1 50/1/1 51/1/1
f 55/1/1 54/1/1 53/1/1
f 56/1/1 54/1/1 55/1/1
f 59/1/1 58/1/1 57/1/1
f 60/1/1 58/1/1 59/1/1
f 67/2/1 62/2/1 61/2/1
f 68/2/1 62/2/1 67/2/1
f 69/2/1 64/2/1 63/2/1
f 70/2/1 64/2/1 69/2/1
f 71/2/1 66/2/1 65/2/1
f 72/2/1 66/2/1 71/2/1
f 77/2/1 74/2/1 73/2/1
f 78/2/1 74/2/1 77/2/1
f 79/2/1 76/2/1 75/2/1
f 80/2/1 76/2/1 79/2/1
f 81/2/1 78/2/1 77/2/1
f 82/2/1 78/2/1 81/2/1
f 83/2/1 80/2/1 79/2/1
f 84/2/1 80/2/1 83/2/1
f 91/2/1 86/2/1 85/2/1
f 92/2/1 86/2/1 91/2/1
f 93/2/1 90/2/1 89/2/1
f 94/2/1 90/2/1 93/2/1
f 95/2/1 88/2/1 87/2/1
f 96/2/1 88/2/1 95/2/1
f 97/2/1 96/2/1 95/2/1
f 98/2/1 96/2/1 97/2/1
f 103/2/1 100/2/1 99/2/1
f 104/2/1 102/2/1 101/2/1
f 105/2/1 100/2/1 103/2/1
f 106/2/1 100/2/1 105/2/1
f 107/2/1 104/2/1 101/2/1
f 108/2/1 104/2/1 107/2/1
f 115/2/1 110/2/1 109/2/1
f 116/2/1 110/2/1 115/2/1
f 117/2/1 112/2/1 111/2/1
f 118/2/1 112/2/1 117/2/1
f 119/2/1 114/2/1 113/2/1
f 120/2/1 114/2/1 119/2/1
f 123/2/1 122/2/1 121/2/1
f 124/2/1 122/2/1 123/2/1
f 127/2/1 126/2/1 125/2/1
f 128/2/1 126/2/1 127/2/1
f 129/2/2 130/2/2 131/2/2
f 131/2/2 130/2/2 132/2/2
f 133/2/2 134/2/2 135/2/2
f 135/2/2 134/2/2 136/2/2
f 137/2/2 138/2/2 143/2/2
f 143/2/2 138/2/2 144/2/2
f 139/2/2 140/2/2 145/2/2
f 145/2/2 140/2/2 146/2/2
f 141/2/2 142/2/2 147/2/2
f 147/2/2 142/2/2 148/2/2
f 149/2/2 150/2/2 153/2/2
f 151/2/2 152/2/2 154/2/2
f 153/2/2 150/2/2 155/2/2
f 155/2/2 150/2/2 156/2/2
f 151/2/2 154/2/2 157/2/2
f 157/2/2 154/2/2 158/2/2
f 159/2/2 160/2/2 165/2/2
f 165/2/2 160/2/2 166/2/2
f 163/2/2 164/2/2 167/2/2
f 167/2/2 164/2/2 168/2/2
f 161/2/2 162/2/2 169/2/2
f 169/2/2 162/2/2 170/2/2
f 169/2/2 170/2/2 171/2/2
f 171/2/2 170/2/2 172/2/2
f 173/2/2 174/2/2 177/2/2
f 177/2/2 174/2/2 178/2/2
f 175/2/2 176/2/2 179/2/2
f 179/2/2 176/2/2 180/2/2
f 177/2/2 178/2/2 181/2/2
f 181/2/2 178/2/2 182/2/2
f 179/2/2 180/2/2 183/2/2
f 183/2/2 180/2/2 184/2/2
f 185/1/2 186/1/2 187/1/2
f 187/1/2 186/1/2 188/1/2
f 189/1/2 190/1/2 191/1/2
f 191/1/2 190/1/2 192/1/2
f 193/1/2 194/1/2 195/1/2
f 195/1/2 194/1/2 196/1/2
f 197/2/2 198/2/2 203/2/2
f 203/2/2 198/2/2 204/2/2
f 199/2/2 200/2/2 205/2/2
f 205/2/2 200/2/2 206/2/2
f 201/2/2 202/2/2 207/2/2
f 207/2/2 202/2/2 208/2/2
f 209/2/2 210/2/2 211/2/2
f 211/2/2 210/2/2 212/2/2
f 213/2/2 214/2/2 215/2/2
f 215/2/2 214/2/2 216/2/2
f 217/2/2 218/2/2 219/2/2
f 219/2/2 218/2/2 220/2/2
f 221/2/2 222/2/2 223/2/2
f 223/2/2 222/2/2 224/2/2
f 225/2/2 226/2/2 227/2/2
f 227/2/2 226/2/2 228/2/2
f 229/2/2 230/2/2 231/2/2
f 231/2/2 230/2/2 232/2/2
f 233/2/2 234/2/2 235/2/2
f 235/2/2 234/2/2 236/2/2
f 237/2/2 238/2/2 239/2/2
f 239/2/2 238/2/2 240/2/2
f 241/2/2 242/2/2 243/2/2
f 243/2/2 242/2/2 244/2/2
f 245/2/2 246/2/2 247/2/2
f 247/2/2 246/2/2 248/2/2
f 249/2/2 250/2/2 251/2/2
f 251/2/2 250/2/2 252/2/2
f 253/4/2 254/4/2 255/4/2
f 255/4/2 254/4/2 256/4/2
f 259/4/3 258/4/3 257/4/3
f 260/4/3 258/4/3 259/4/3
f 263/2/3 262/2/3 261/2/3
f 264/2/3 262/2/3 263/2/3
f 271/2/3 270/2/3 269/2/3
f 272/2/3 270/2/3 271/2/3
f 273/2/3 266/2/3 265/2/3
f 274/2/3 266/2/3 273/2/3
f 275/2/3 268/2/3 267/2/3
f 276/2/3 268/2/3 275/2/3
f 283/2/3 278/2/3 277/2/3
f 284/2/3 278/2/3 283/2/3
f 285/2/3 280/2/3 279/2/3
f 286/2/3 280/2/3 285/2/3
f 287/2/3 282/2/3 281/2/3
f 288/2/3 282/2/3 287/2/3
f 295/2/3 290/2/3 289/2/3
f 296/2/3 290/2/3 295/2/3
f 297/2/3 292/2/3 291/2/3
f 298/2/3 292/2/3 297/2/3
f 299/2/3 294/2/3 293/2/3
f 300/2/3 294/2/3 299/2/3
f 309/2/3 308/2/3 307/2/3
f 310/2/3 308/2/3 309/2/3
f 313/2/3 312/2/3 311/2/3
f 314/2/3 312/2/3 313/2/3
f 317/1/3 302/1/3 301/1/3
f 318/1/3 302/1/3 317/1/3
f 319/1/3 304/1/3 303/1/3
f 320/1/3 304/1/3 319/1/3
f 321/1/3 306/1/3 305/1/3
f 322/1/3 306/1/3 321/1/3
f 323/2/3 316/2/3 315/2/3
f 324/2/3 316/2/3 323/2/3
f 328/2/3 326/2/3 325/2/3
f 328/2/3 327/2/3 326/2/3
f 329/2/3 327/2/3 328/2/3
f 330/2/3 327/2/3 329/2/3
f 334/2/3 332/2/3 331/2/3
f 334/2/3 333/2/3 332/2/3
f 335/2/3 333/2/3 334/2/3
f 336/2/3 333/2/3 335/2/3
f 339/2/3 338/2/3 337/2/3
f 340/2/3 338/2/3 339/2/3
f 343/2/3 342/2/3 341/2/3
f 344/2/3 342/2/3 343/2/3
f 348/2/3 346/2/3 345/2/3
f 348/2/3 347/2/3 346/2/3
f 349/2/3 347/2/3 348/2/3
f 350/2/3 347/2/3 349/2/3
f 353/2/3 352/2/3 351/2/3
f 354/2/3 352/2/3 353/2/3
f 358/2/3 356/2/3 355/2/3
f 358/2/3 357/2/3 356/2/3
f 359/2/3 357/2/3 358/2/3
f 362/2/3 361/2/3 360/2/3
f 363/2/3 361/2/3 362/2/3
f 364/2/3 361/2/3 363/2/3
f 367/2/3 366/2/3 365/2/3
f 368/2/3 366/2/3 367/2/3
f 371/2/3 370/2/3 369/2/3
f 372/2/3 370/2/3 371/2/3
f 375/2/3 374/2/3 373/2/3
f 376/2/3 374/2/3 375/2/3
f 379/2/3 378/2/3 377/2/3
f 380/2/3 378/2/3 379/2/3
f 383/2/3 382/2/3 381/2/3
f 384/2/3 382/2/3 383/2/3
f 385/2/4 386/2/4 387/2/4
f 387/2/4 386/2/4 388/2/4
f 389/2/4 390/2/4 391/2/4
f 391/2/4 390/2/4 392/2/4
f 393/2/4 394/2/4 395/2/4
f 395/2/4 394/2/4 396/2/4
f 397/2/4 398/2/4 399/2/4
f 399/2/4 398/2/4 400/2/4
f 401/2/4 402/2/4 404/2/4
f 402/2/4 403/2/4 404/2/4
f 404/2/4 403/2/4 405/2/4
f 406/2/4 407/2/4 408/2/4
f 408/2/4 407/2/4 409/2/4
f 409/2/4 407/2/4 410/2/4
f 411/2/4 412/2/4 413/2/4
f 413/2/4 412/2/4 414/2/4
f 415/2/4 416/2/4 417/2/4
f 417/2/4 416/2/4 418/2/4
f 419/2/4 420/2/4 422/2/4
f 420/2/4 421/2/4 422/2/4
f 422/2/4 421/2/4 423/2/4
f 423/2/4 421/2/4 424/2/4
f 425/2/4 426/2/4 427/2/4
f 427/2/4 426/2/4 428/2/4
f 429/2/4 430/2/4 432/2/4
f 430/2/4 431/2/4 432/2/4
f 432/2/4 431/2/4 433/2/4
f 433/2/4 431/2/4 434/2/4
f 435/2/4 436/2/4 438/2/4
f 436/2/4 437/2/4 438/2/4
f 438/2/4 437/2/4 439/2/4
f 439/2/4 437/2/4 440/2/4
f 447/2/4 448/2/4 449/2/4
f 449/2/4 448/2/4 450/2/4
f 451/2/4 452/2/4 453/2/4
f 453/2/4 452/2/4 454/2/4
f 441/1/4 442/1/4 457/1/4
f 457/1/4 442/1/4 458/1/4
f 443/1/4 444/1/4 459/1/4
f 459/1/4 444/1/4 460/1/4
f 445/1/4 446/1/4 461/1/4
f 461/1/4 446/1/4 462/1/4
f 455/2/4 456/2/4 463/2/4
f 463/2/4 456/2/4 464/2/4
f 465/2/4 466/2/4 471/2/4
f 471/2/4 466/2/4 472/2/4
f 467/2/4 468/2/4 473/2/4
f 473/2/4 468/2/4 474/2/4
f 469/2/4 470/2/4 475/2/4
f 475/2/4 470/2/4 476/2/4
f 483/2/4 484/2/4 485/2/4
f 485/2/4 484/2/4 486/2/4
f 477/2/4 478/2/4 487/2/4
f 487/2/4 478/2/4 488/2/4
f 479/2/4 480/2/4 489/2/4
f 489/2/4 480/2/4 490/2/4
f 481/2/4 482/2/4 491/2/4
f 491/2/4 482/2/4 492/2/4
f 493/2/4 494/2/4 499/2/4
f 499/2/4 494/2/4 500/2/4
f 495/2/4 496/2/4 501/2/4
f 501/2/4 496/2/4 502/2/4
f 497/2/4 498/2/4 503/2/4
f 503/2/4 498/2/4 504/2/4
f 505/2/4 506/2/4 507/2/4
f 507/2/4 506/2/4 508/2/4
f 509/4/4 510/4/4 511/4/4
f 511/4/4 510/4/4 512/4/4
f 515/4/5 514/4/5 513/4/5
f 516/4/5 514/4/5 515/4/5
f 517/4/5 515/4/5 513/4/5
f 517/3/5 516/3/5 515/3/5
f 518/4/5 514/4/5 516/4/5
f 518/3/5 516/3/5 517/3/5
f 519/4/5 517/4/5 513/4/5
f 519/4/5 518/4/5 517/4/5
f 520/4/5 514/4/5 518/4/5
f 520/4/5 518/4/5 519/4/5
f 523/2/5 522/2/5 521/2/5
f 524/2/5 522/2/5 523/2/5
f 525/2/5 523/2/5 521/2/5
f 526/2/5 522/2/5 524/2/5
f 527/2/5 525/2/5 521/2/5
f 527/2/5 526/2/5 525/2/5
f 528/2/5 522/2/5 526/2/5
f 528/2/5 526/2/5 527/2/5
f 531/2/5 530/2/5 529/2/5
f 532/2/5 530/2/5 531/2/5
f 533/2/5 531/2/5 529/2/5
f 534/2/5 530/2/5 532/2/5
f 535/2/5 533/2/5 529/2/5
f 535/2/5 534/2/5 533/2/5
f 536/2/5 530/2/5 534/2/5
f 536/2/5 534/2/5 535/2/5
f 539/2/5 538/2/5 537/2/5
f 540/2/5 538/2/5 539/2/5
f 541/2/5 539/2/5 537/2/5
f 542/2/5 538/2/5 540/2/5
f 543/2/5 541/2/5 537/2/5
f 543/2/5 542/2/5 541/2/5
f 544/2/5 538/2/5 542/2/5
f 544/2/5 542/2/5 543/2/5
f 545/4/6 546/4/6 547/4/6
f 547/4/6 546/4/6 548/4/6
f 547/3/6 548/3/6 549/3/6
f 549/3/6 548/3/6 550/3/6
f 547/3/6 549/3/6 551/3/6
f 550/3/6 548/3/6 552/3/6
f 552/3/6 548/3/6 553/3/6
f 551/3/6 552/3/6 553/3/6
f 553/3/6 548/3/6 554/3/6
f 554/3/6 548/3/6 555/3/6
f 555/3/6 548/3/6 556/3/6
f 554/3/6 555/3/6 557/3/6
f 556/3/6 548/3/6 558/3/6
f 551/3/6 553/3/6 559/3/6
f 557/3/6 558/3/6 560/3/6
f 554/3/6 557/3/6 560/3/6
f 560/3/6 558/3/6 561/3/6
f 559/3/6 560/3/6 561/3/6
f 561/3/6 558/3/6 562/3/6
f 547/3/6 551/3/6 563/3/6
f 551/3/6 559/3/6 563/3/6
f 559/3/6 561/3/6 563/3/6
f 563/3/6 561/3/6 564/3/6
f 564/3/6 561/3/6 565/3/6
f 562/3/6 558/3/6 566/3/6
f 547/3/6 563/3/6 567/3/6
f 564/3/6 565/3/6 568/3/6
f 565/3/6 566/3/6 568/3/6
f 545/4/6 547/4/6 569/4/6
f 567/3/6 568/3/6 569/3/6
f 547/3/6 567/3/6 569/3/6
f 568/3/6 566/3/6 570/3/6
f 569/3/6 568/3/6 570/3/6
f 548/4/6 546/4/6 570/4/6
f 566/3/6 558/3/6 570/3/6
f 558/3/6 548/3/6 570/3/6
f 545/4/6 569/4/6 571/4/6
f 569/4/6 570/4/6 571/4/6
f 570/4/6 546/4/6 572/4/6
f 571/4/6 570/4/6 572/4/6
f 573/2/6 574/2/6 575/2/6
f 575/2/6 574/2/6 576/2/6
f 577/2/6 578/2/6 579/2/6
f 579/2/6 578/2/6 580/2/6
f 581/2/6 582/2/6 585/2/6
f 585/2/6 582/2/6 586/2/6
f 583/2/6 584/2/6 587/2/6
f 587/2/6 584/2/6 588/2/6
f 589/2/6 590/2/6 591/2/6
f 591/2/6 590/2/6 592/2/6
f 589/2/6 591/2/6 593/2/6
f 592/2/6 590/2/6 594/2/6
f 589/2/6 593/2/6 595/2/6
f 593/2/6 594/2/6 595/2/6
f 594/2/6 590/2/6 596/2/6
f 595/2/6 594/2/6 596/2/6
f 597/2/6 598/2/6 599/2/6
f 599/2/6 598/2/6 600/2/6
f 597/2/6 599/2/6 601/2/6
f 600/2/6 598/2/6 602/2/6
f 597/2/6 601/2/6 603/2/6
f 601/2/6 602/2/6 603/2/6
f 602/2/6 598/2/6 604/2/6
f 603/2/6 602/2/6 604/2/6
f 605/2/6 606/2/6 607/2/6
f 607/2/6 606/2/6 608/2/6
f 605/2/6 607/2/6 609/2/6
f 608/2/6 606/2/6 610/2/6
f 605/2/6 609/2/6 611/2/6
f 609/2/6 610/2/6 611/2/6
f 610/2/6 606/2/6 612/2/6
f 611/2/6 610/2/6 612/2/6
f 613/2/6 614/2/6 615/2/6
f 615/2/6 614/2/6 616/2/6
f 613/2/6 615/2/6 617/2/6
f 616/2/6 614/2/6 618/2/6
f 613/2/6 617/2/6 619/2/6
f 617/2/6 618/2/6 619/2/6
f 618/2/6 614/2/6 620/2/6
f 619/2/6 618/2/6 620/2/6
f 621/2/6 622/2/6 623/2/6
f 623/2/6 622/2/6 624/2/6
f 621/2/6 623/2/6 625/2/6
f 624/2/6 622/2/6 626/2/6
f 621/2/6 625/2/6 627/2/6
f 625/2/6 626/2/6 627/2/6
f 626/2/6 622/2/6 628/2/6
f 627/2/6 626/2/6 628/2/6
f 629/2/6 630/2/6 631/2/6
f 631/2/6 630/2/6 632/2/6
f 629/2/6 631/2/6 633/2/6
f 632/2/6 630/2/6 634/2/6
f 629/2/6 633/2/6 635/2/6
f 633/2/6 634/2/6 635/2/6
f 634/2/6 630/2/6 636/2/6
f 635/2/6 634/2/6 636/2/6
f 637/2/6 638/2/6 639/2/6
f 639/2/6 638/2/6 640/2/6
f 637/2/6 639/2/6 641/2/6
f 640/2/6 638/2/6 642/2/6
f 637/2/6 641/2/6 643/2/6
f 641/2/6 642/2/6 643/2/6
f 642/2/6 638/2/6 644/2/6
f 643/2/6 642/2/6 644/2/6
f 645/2/6 646/2/6 647/2/6
f 647/2/6 646/2/6 648/2/6
f 645/2/6 647/2/6 649/2/6
f 648/2/6 646/2/6 650/2/6
f 645/2/6 649/2/6 651/2/6
f 649/2/6 650/2/6 651/2/6
f 650/2/6 646/2/6 652/2/6
f 651/2/6 650/2/6 652/2/6
f 653/2/6 654/2/6 655/2/6
f 655/2/6 654/2/6 656/2/6
f 656/2/6 654/2/6 657/2/6
f 657/2/6 654/2/6 658/2/6
f 658/2/6 654/2/6 659/2/6
f 659/2/6 654/2/6 660/2/6
f 653/2/6 655/2/6 661/2/6
f 656/1/6 657/1/6 662/1/6
f 662/1/6 657/1/6 663/1/6
f 658/1/6 659/1/6 664/1/6
f 664/1/6 659/1/6 665/1/6
f 660/2/6 654/2/6 666/2/6
f 653/2/6 661/2/6 667/2/6
f 661/1/6 662/1/6 667/1/6
f 667/1/6 662/1/6 668/1/6
f 663/1/6 664/1/6 669/1/6
f 669/1/6 664/1/6 670/1/6
f 665/1/6 666/1/6 671/1/6
f 666/2/6 654/2/6 672/2/6
f 671/1/6 666/1/6 672/1/6
f 653/2/6 667/2/6 673/2/6
f 668/1/6 669/1/6 674/1/6
f 674/1/6 669/1/6 675/1/6
f 670/1/6 671/1/6 676/1/6
f 676/1/6 671/1/6 677/1/6
f 672/2/6 654/2/6 678/2/6
f 653/2/6 673/2/6 679/2/6
f 673/1/6 674/1/6 679/1/6
f 679/1/6 674/1/6 680/1/6
f 675/1/6 676/1/6 681/1/6
f 681/1/6 676/1/6 682/1/6
f 677/1/6 678/1/6 683/1/6
f 678/2/6 654/2/6 684/2/6
f 683/1/6 678/1/6 684/1/6
f 653/2/6 679/2/6 685/2/6
f 680/1/6 681/1/6 686/1/6
f 686/1/6 681/1/6 687/1/6
f 682/1/6 683/1/6 688/1/6
f 688/1/6 683/1/6 689/1/6
f 684/2/6 654/2/6 690/2/6
f 688/2/6 689/2/6 691/2/6
f 689/2/6 690/2/6 691/2/6
f 686/2/6 687/2/6 691/2/6
f 653/2/6 685/2/6 691/2/6
f 687/2/6 688/2/6 691/2/6
f 685/2/6 686/2/6 691/2/6
f 690/2/6 654/2/6 692/2/6
f 691/2/6 690/2/6 692/2/6
f 693/2/6 694/2/6 699/2/6
f 699/2/6 694/2/6 700/2/6
f 695/2/6 696/2/6 701/2/6
f 701/2/6 696/2/6 702/2/6
f 697/2/6 698/2/6 703/2/6
f 703/2/6 698/2/6 704/2/6
f 705/2/6 706/2/6 709/2/6
f 709/2/6 706/2/6 710/2/6
f 707/2/6 708/2/6 711/2/6
f 711/2/6 708/2/6 712/2/6
f 713/2/6 714/2/6 719/2/6
f 719/2/6 714/2/6 720/2/6
f 715/2/6 716/2/6 721/2/6
f 721/2/6 716/2/6 722/2/6
f 717/2/6 718/2/6 723/2/6
f 723/2/6 718/2/6 724/2/6
f 725/2/6 726/2/6 729/2/6
f 729/2/6 726/2/6 730/2/6
f 727/2/6 728/2/6 731/2/6
f 731/2/6 728/2/6 732/2/6
f 733/2/6 734/2/6 737/2/6
f 737/2/6 734/2/6 738/2/6
f 735/2/6 736/2/6 739/2/6
f 739/2/6 736/2/6 740/2/6
f 741/2/6 742/2/6 743/2/6
f 743/2/6 742/2/6 744/2/6
